<mxfile host="app.diagrams.net" agent="Mozilla/5.0 (Windows NT 10.0; Win64; x64) AppleWebKit/537.36 (KHTML, like Gecko) Chrome/134.0.0.0 Safari/537.36" version="26.1.1">
  <diagram id="4JyVuKjJq_khIzKYsT13" name="第 1 页">
    <mxGraphModel dx="1434" dy="746" grid="1" gridSize="10" guides="1" tooltips="1" connect="1" arrows="1" fold="1" page="1" pageScale="1" pageWidth="827" pageHeight="1169" math="0" shadow="0">
      <root>
        <mxCell id="0" />
        <mxCell id="1" parent="0" />
        <mxCell id="H5oc_YNKsA5Ml7sMJRuU-21" style="edgeStyle=orthogonalEdgeStyle;rounded=0;orthogonalLoop=1;jettySize=auto;html=1;exitX=0.5;exitY=1;exitDx=0;exitDy=0;entryX=0.5;entryY=0;entryDx=0;entryDy=0;" edge="1" parent="1" source="H5oc_YNKsA5Ml7sMJRuU-1" target="H5oc_YNKsA5Ml7sMJRuU-2">
          <mxGeometry relative="1" as="geometry" />
        </mxCell>
        <mxCell id="H5oc_YNKsA5Ml7sMJRuU-1" value="Hello.java" style="rounded=0;whiteSpace=wrap;html=1;" vertex="1" parent="1">
          <mxGeometry x="260" y="10" width="120" height="60" as="geometry" />
        </mxCell>
        <mxCell id="H5oc_YNKsA5Ml7sMJRuU-25" style="edgeStyle=orthogonalEdgeStyle;rounded=0;orthogonalLoop=1;jettySize=auto;html=1;exitX=0.5;exitY=1;exitDx=0;exitDy=0;entryX=0.5;entryY=0;entryDx=0;entryDy=0;" edge="1" parent="1" source="H5oc_YNKsA5Ml7sMJRuU-2" target="H5oc_YNKsA5Ml7sMJRuU-3">
          <mxGeometry relative="1" as="geometry" />
        </mxCell>
        <mxCell id="H5oc_YNKsA5Ml7sMJRuU-2" value="Hello.class" style="rounded=0;whiteSpace=wrap;html=1;" vertex="1" parent="1">
          <mxGeometry x="260" y="110" width="120" height="60" as="geometry" />
        </mxCell>
        <mxCell id="H5oc_YNKsA5Ml7sMJRuU-3" value="类加载器" style="rounded=0;whiteSpace=wrap;html=1;" vertex="1" parent="1">
          <mxGeometry x="260" y="190" width="120" height="60" as="geometry" />
        </mxCell>
        <mxCell id="H5oc_YNKsA5Ml7sMJRuU-8" value="&lt;div&gt;&lt;br&gt;&lt;/div&gt;&lt;div&gt;&lt;br&gt;&lt;/div&gt;&lt;div&gt;&lt;br&gt;&lt;/div&gt;&lt;div&gt;&lt;br&gt;&lt;/div&gt;&lt;div&gt;&lt;br&gt;&lt;/div&gt;&lt;div&gt;&lt;br&gt;&lt;/div&gt;&lt;div&gt;&lt;br&gt;&lt;/div&gt;&lt;div&gt;&lt;br&gt;&lt;/div&gt;&lt;div&gt;&lt;br&gt;&lt;/div&gt;&lt;div&gt;&lt;br&gt;&lt;/div&gt;&lt;div&gt;&lt;br&gt;&lt;/div&gt;&lt;div&gt;&lt;br&gt;&lt;/div&gt;&lt;div&gt;&lt;br&gt;&lt;/div&gt;&lt;div&gt;&lt;br&gt;&lt;/div&gt;&lt;div&gt;&lt;br&gt;&lt;/div&gt;&lt;div&gt;&lt;br&gt;&lt;/div&gt;&lt;div&gt;&lt;br&gt;&lt;/div&gt;&lt;div&gt;运行时数据区&lt;/div&gt;" style="rounded=0;whiteSpace=wrap;html=1;" vertex="1" parent="1">
          <mxGeometry x="60" y="510" width="530" height="310" as="geometry" />
        </mxCell>
        <mxCell id="H5oc_YNKsA5Ml7sMJRuU-9" value="&lt;div&gt;&lt;br&gt;&lt;/div&gt;&lt;div&gt;&lt;br&gt;&lt;/div&gt;&lt;div&gt;&lt;br&gt;&lt;/div&gt;&lt;div&gt;&lt;br&gt;&lt;/div&gt;&lt;div&gt;&lt;br&gt;&lt;/div&gt;&lt;div&gt;&lt;br&gt;&lt;/div&gt;&lt;div&gt;&lt;br&gt;&lt;/div&gt;&lt;div&gt;&lt;br&gt;&lt;/div&gt;&lt;div&gt;线程共享区&lt;/div&gt;" style="rounded=0;whiteSpace=wrap;html=1;" vertex="1" parent="1">
          <mxGeometry x="90" y="540" width="120" height="220" as="geometry" />
        </mxCell>
        <mxCell id="H5oc_YNKsA5Ml7sMJRuU-10" value="&lt;div&gt;&lt;br&gt;&lt;/div&gt;&lt;div&gt;&lt;br&gt;&lt;/div&gt;&lt;div&gt;&lt;br&gt;&lt;/div&gt;&lt;div&gt;&lt;br&gt;&lt;/div&gt;&lt;div&gt;&lt;br&gt;&lt;/div&gt;&lt;div&gt;&lt;br&gt;&lt;/div&gt;&lt;div&gt;&lt;br&gt;&lt;/div&gt;&lt;div&gt;&lt;br&gt;&lt;/div&gt;&lt;div&gt;&lt;br&gt;&lt;/div&gt;&lt;div&gt;&lt;br&gt;&lt;/div&gt;&lt;div&gt;&lt;br&gt;&lt;/div&gt;&lt;div&gt;&lt;br&gt;&lt;/div&gt;&lt;div&gt;&lt;br&gt;&lt;/div&gt;&lt;div&gt;线程私有区&lt;/div&gt;" style="rounded=0;whiteSpace=wrap;html=1;" vertex="1" parent="1">
          <mxGeometry x="230" y="540" width="300" height="220" as="geometry" />
        </mxCell>
        <mxCell id="H5oc_YNKsA5Ml7sMJRuU-11" value="方法区" style="rounded=0;whiteSpace=wrap;html=1;" vertex="1" parent="1">
          <mxGeometry x="100" y="560" width="100" height="50" as="geometry" />
        </mxCell>
        <mxCell id="H5oc_YNKsA5Ml7sMJRuU-13" value="堆" style="rounded=0;whiteSpace=wrap;html=1;" vertex="1" parent="1">
          <mxGeometry x="100" y="625" width="100" height="50" as="geometry" />
        </mxCell>
        <mxCell id="H5oc_YNKsA5Ml7sMJRuU-17" value="栈" style="rounded=0;whiteSpace=wrap;html=1;" vertex="1" parent="1">
          <mxGeometry x="240" y="560" width="100" height="50" as="geometry" />
        </mxCell>
        <mxCell id="H5oc_YNKsA5Ml7sMJRuU-18" value="程序计数器" style="rounded=0;whiteSpace=wrap;html=1;" vertex="1" parent="1">
          <mxGeometry x="364" y="560" width="100" height="50" as="geometry" />
        </mxCell>
        <mxCell id="H5oc_YNKsA5Ml7sMJRuU-19" value="本地方法栈" style="rounded=0;whiteSpace=wrap;html=1;" vertex="1" parent="1">
          <mxGeometry x="245" y="625" width="100" height="50" as="geometry" />
        </mxCell>
        <mxCell id="H5oc_YNKsA5Ml7sMJRuU-23" value="编 译" style="text;html=1;align=center;verticalAlign=middle;resizable=0;points=[];autosize=1;strokeColor=none;fillColor=none;" vertex="1" parent="1">
          <mxGeometry x="295" y="70" width="50" height="30" as="geometry" />
        </mxCell>
        <mxCell id="H5oc_YNKsA5Ml7sMJRuU-29" value="&amp;nbsp;" style="rounded=0;whiteSpace=wrap;html=1;" vertex="1" parent="1">
          <mxGeometry x="450" y="20" width="120" height="340" as="geometry" />
        </mxCell>
        <mxCell id="H5oc_YNKsA5Ml7sMJRuU-30" value="" style="endArrow=classic;html=1;rounded=0;" edge="1" parent="1">
          <mxGeometry width="50" height="50" relative="1" as="geometry">
            <mxPoint x="320" y="300" as="sourcePoint" />
            <mxPoint x="450" y="300" as="targetPoint" />
          </mxGeometry>
        </mxCell>
        <mxCell id="H5oc_YNKsA5Ml7sMJRuU-31" value="类加载器的流程" style="edgeLabel;html=1;align=center;verticalAlign=middle;resizable=0;points=[];" vertex="1" connectable="0" parent="H5oc_YNKsA5Ml7sMJRuU-30">
          <mxGeometry x="-0.1795" y="-2" relative="1" as="geometry">
            <mxPoint x="7" y="-12" as="offset" />
          </mxGeometry>
        </mxCell>
        <mxCell id="H5oc_YNKsA5Ml7sMJRuU-43" style="edgeStyle=orthogonalEdgeStyle;rounded=0;orthogonalLoop=1;jettySize=auto;html=1;exitX=1;exitY=0.5;exitDx=0;exitDy=0;entryX=0;entryY=0.5;entryDx=0;entryDy=0;" edge="1" parent="1" source="H5oc_YNKsA5Ml7sMJRuU-33" target="H5oc_YNKsA5Ml7sMJRuU-42">
          <mxGeometry relative="1" as="geometry" />
        </mxCell>
        <mxCell id="H5oc_YNKsA5Ml7sMJRuU-33" value="&lt;span style=&quot;font-family: &amp;quot;Helvetica Neue&amp;quot;, Helvetica, Verdana, Arial, sans-serif; font-size: 14px; text-align: left; background-color: rgb(255, 255, 255);&quot;&gt;加载&lt;/span&gt;" style="rounded=0;whiteSpace=wrap;html=1;" vertex="1" parent="1">
          <mxGeometry x="475" y="60" width="70" height="30" as="geometry" />
        </mxCell>
        <mxCell id="H5oc_YNKsA5Ml7sMJRuU-45" style="edgeStyle=orthogonalEdgeStyle;rounded=0;orthogonalLoop=1;jettySize=auto;html=1;exitX=1;exitY=0.5;exitDx=0;exitDy=0;entryX=0;entryY=0.5;entryDx=0;entryDy=0;" edge="1" parent="1" source="H5oc_YNKsA5Ml7sMJRuU-34" target="H5oc_YNKsA5Ml7sMJRuU-44">
          <mxGeometry relative="1" as="geometry" />
        </mxCell>
        <mxCell id="H5oc_YNKsA5Ml7sMJRuU-34" value="&lt;span style=&quot;font-family: &amp;quot;Helvetica Neue&amp;quot;, Helvetica, Verdana, Arial, sans-serif; font-size: 14px; text-align: left; background-color: rgb(255, 255, 255);&quot;&gt;验证&lt;/span&gt;" style="rounded=0;whiteSpace=wrap;html=1;" vertex="1" parent="1">
          <mxGeometry x="475" y="100" width="70" height="30" as="geometry" />
        </mxCell>
        <mxCell id="H5oc_YNKsA5Ml7sMJRuU-47" style="edgeStyle=orthogonalEdgeStyle;rounded=0;orthogonalLoop=1;jettySize=auto;html=1;exitX=1;exitY=0.5;exitDx=0;exitDy=0;entryX=0;entryY=0.5;entryDx=0;entryDy=0;" edge="1" parent="1" source="H5oc_YNKsA5Ml7sMJRuU-37" target="H5oc_YNKsA5Ml7sMJRuU-46">
          <mxGeometry relative="1" as="geometry" />
        </mxCell>
        <mxCell id="H5oc_YNKsA5Ml7sMJRuU-37" value="&lt;span style=&quot;font-family: &amp;quot;Helvetica Neue&amp;quot;, Helvetica, Verdana, Arial, sans-serif; font-size: 14px; text-align: left; background-color: rgb(255, 255, 255);&quot;&gt;准备&lt;/span&gt;" style="rounded=0;whiteSpace=wrap;html=1;" vertex="1" parent="1">
          <mxGeometry x="475" y="140" width="70" height="30" as="geometry" />
        </mxCell>
        <mxCell id="H5oc_YNKsA5Ml7sMJRuU-49" style="edgeStyle=orthogonalEdgeStyle;rounded=0;orthogonalLoop=1;jettySize=auto;html=1;exitX=1;exitY=0.5;exitDx=0;exitDy=0;entryX=0;entryY=0.5;entryDx=0;entryDy=0;" edge="1" parent="1" source="H5oc_YNKsA5Ml7sMJRuU-38" target="H5oc_YNKsA5Ml7sMJRuU-48">
          <mxGeometry relative="1" as="geometry" />
        </mxCell>
        <mxCell id="H5oc_YNKsA5Ml7sMJRuU-38" value="&lt;span style=&quot;font-family: &amp;quot;Helvetica Neue&amp;quot;, Helvetica, Verdana, Arial, sans-serif; font-size: 14px; text-align: left; background-color: rgb(255, 255, 255);&quot;&gt;解析&lt;/span&gt;" style="rounded=0;whiteSpace=wrap;html=1;" vertex="1" parent="1">
          <mxGeometry x="475" y="175" width="70" height="30" as="geometry" />
        </mxCell>
        <mxCell id="H5oc_YNKsA5Ml7sMJRuU-39" value="&lt;span style=&quot;font-family: &amp;quot;Helvetica Neue&amp;quot;, Helvetica, Verdana, Arial, sans-serif; font-size: 14px; text-align: left; background-color: rgb(255, 255, 255);&quot;&gt;初始化&lt;/span&gt;" style="rounded=0;whiteSpace=wrap;html=1;" vertex="1" parent="1">
          <mxGeometry x="475" y="210" width="70" height="30" as="geometry" />
        </mxCell>
        <mxCell id="H5oc_YNKsA5Ml7sMJRuU-52" style="edgeStyle=orthogonalEdgeStyle;rounded=0;orthogonalLoop=1;jettySize=auto;html=1;exitX=1;exitY=0.5;exitDx=0;exitDy=0;entryX=0;entryY=0.5;entryDx=0;entryDy=0;" edge="1" parent="1" source="H5oc_YNKsA5Ml7sMJRuU-40" target="H5oc_YNKsA5Ml7sMJRuU-51">
          <mxGeometry relative="1" as="geometry" />
        </mxCell>
        <mxCell id="H5oc_YNKsA5Ml7sMJRuU-40" value="&lt;span style=&quot;font-family: &amp;quot;Helvetica Neue&amp;quot;, Helvetica, Verdana, Arial, sans-serif; font-size: 14px; text-align: left; background-color: rgb(255, 255, 255);&quot;&gt;卸载&lt;/span&gt;" style="rounded=0;whiteSpace=wrap;html=1;" vertex="1" parent="1">
          <mxGeometry x="475" y="290" width="70" height="30" as="geometry" />
        </mxCell>
        <mxCell id="H5oc_YNKsA5Ml7sMJRuU-41" value="&lt;span style=&quot;font-family: &amp;quot;Helvetica Neue&amp;quot;, Helvetica, Verdana, Arial, sans-serif; font-size: 14px; text-align: left; background-color: rgb(255, 255, 255);&quot;&gt;使用&lt;/span&gt;" style="rounded=0;whiteSpace=wrap;html=1;" vertex="1" parent="1">
          <mxGeometry x="475" y="250" width="70" height="30" as="geometry" />
        </mxCell>
        <mxCell id="H5oc_YNKsA5Ml7sMJRuU-42" value="&lt;div style=&quot;text-align: left;&quot;&gt;&lt;font face=&quot;Helvetica Neue, Helvetica, Verdana, Arial, sans-serif&quot;&gt;&lt;span style=&quot;font-size: 8px;&quot;&gt;&lt;br&gt;&lt;/span&gt;&lt;/font&gt;&lt;/div&gt;&lt;ol style=&quot;margin: 0px; padding: 0px 0px 0px 40px; font-family: &amp;quot;Helvetica Neue&amp;quot;, Helvetica, Verdana, Arial, sans-serif; text-align: left; background-color: rgb(255, 255, 255);&quot; class=&quot;list-paddingleft-2&quot;&gt;&lt;li style=&quot;margin: 0px 0px 1em; padding: 0px; list-style: inherit;&quot;&gt;&lt;p style=&quot;margin: 10px auto; padding: 0px;&quot;&gt;&lt;font style=&quot;font-size: 8px;&quot;&gt;将class文件加载到内存&lt;/font&gt;&lt;/p&gt;&lt;/li&gt;&lt;li style=&quot;margin: 0px 0px 1em; padding: 0px; list-style: inherit;&quot;&gt;&lt;p style=&quot;margin: 10px auto; padding: 0px;&quot;&gt;&lt;font style=&quot;font-size: 8px;&quot;&gt;将静态数据结构转化成方法区中运行时的数据结构&lt;/font&gt;&lt;/p&gt;&lt;/li&gt;&lt;li style=&quot;margin: 0px 0px 1em; padding: 0px; list-style: inherit;&quot;&gt;&lt;p style=&quot;margin: 10px auto; padding: 0px;&quot;&gt;&lt;font style=&quot;font-size: 8px;&quot;&gt;在堆中生成一个代表这个类的 java.lang.Class对象作为数据访问的入口&lt;/font&gt;&lt;/p&gt;&lt;/li&gt;&lt;/ol&gt;" style="rounded=0;whiteSpace=wrap;html=1;" vertex="1" parent="1">
          <mxGeometry x="590" y="20" width="230" height="110" as="geometry" />
        </mxCell>
        <mxCell id="H5oc_YNKsA5Ml7sMJRuU-44" value="&lt;font style=&quot;font-size: 8px;&quot;&gt;确保加载的类符合 JVM 规范和安全，保证被校验类的方法在运行时不会做出危害虚拟机的事件，其实就是一个安全检查&lt;/font&gt;" style="rounded=0;whiteSpace=wrap;html=1;" vertex="1" parent="1">
          <mxGeometry x="590" y="140" width="230" height="60" as="geometry" />
        </mxCell>
        <mxCell id="H5oc_YNKsA5Ml7sMJRuU-46" value="为static变量在方法区中分配内存空间" style="rounded=0;whiteSpace=wrap;html=1;fontSize=8;" vertex="1" parent="1">
          <mxGeometry x="590" y="210" width="230" height="60" as="geometry" />
        </mxCell>
        <mxCell id="H5oc_YNKsA5Ml7sMJRuU-48" value="&lt;span style=&quot;font-family: &amp;quot;Helvetica Neue&amp;quot;, Helvetica, Verdana, Arial, sans-serif; text-align: left; background-color: rgb(255, 255, 255);&quot;&gt;&lt;font style=&quot;font-size: 8px;&quot;&gt;虚拟机将常量池内的符号引用替换为直接引用的过程&lt;/font&gt;&lt;/span&gt;" style="rounded=0;whiteSpace=wrap;html=1;" vertex="1" parent="1">
          <mxGeometry x="590" y="280" width="230" height="60" as="geometry" />
        </mxCell>
        <mxCell id="H5oc_YNKsA5Ml7sMJRuU-50" value="&lt;span style=&quot;font-family: &amp;quot;Helvetica Neue&amp;quot;, Helvetica, Verdana, Arial, sans-serif; text-align: left; background-color: rgb(255, 255, 255);&quot;&gt;&lt;font style=&quot;font-size: 8px;&quot;&gt;初始化其实就是一个赋值的操作。由编译器自动收集类中所有变量的赋值动作&amp;nbsp;&lt;/font&gt;&lt;/span&gt;" style="rounded=0;whiteSpace=wrap;html=1;" vertex="1" parent="1">
          <mxGeometry x="590" y="360" width="230" height="60" as="geometry" />
        </mxCell>
        <mxCell id="H5oc_YNKsA5Ml7sMJRuU-51" value="&lt;span style=&quot;font-family: &amp;quot;Helvetica Neue&amp;quot;, Helvetica, Verdana, Arial, sans-serif; text-align: left; background-color: rgb(255, 255, 255);&quot;&gt;&lt;font style=&quot;font-size: 8px;&quot;&gt;GC将无用对象从内存中卸载&lt;/font&gt;&lt;/span&gt;" style="rounded=0;whiteSpace=wrap;html=1;" vertex="1" parent="1">
          <mxGeometry x="590" y="440" width="230" height="60" as="geometry" />
        </mxCell>
        <mxCell id="H5oc_YNKsA5Ml7sMJRuU-53" style="edgeStyle=orthogonalEdgeStyle;rounded=0;orthogonalLoop=1;jettySize=auto;html=1;exitX=1;exitY=0.5;exitDx=0;exitDy=0;entryX=0;entryY=0.667;entryDx=0;entryDy=0;entryPerimeter=0;" edge="1" parent="1" source="H5oc_YNKsA5Ml7sMJRuU-39" target="H5oc_YNKsA5Ml7sMJRuU-50">
          <mxGeometry relative="1" as="geometry" />
        </mxCell>
        <mxCell id="H5oc_YNKsA5Ml7sMJRuU-55" style="edgeStyle=orthogonalEdgeStyle;rounded=0;orthogonalLoop=1;jettySize=auto;html=1;entryX=0.489;entryY=0.01;entryDx=0;entryDy=0;entryPerimeter=0;" edge="1" parent="1" source="H5oc_YNKsA5Ml7sMJRuU-3" target="H5oc_YNKsA5Ml7sMJRuU-8">
          <mxGeometry relative="1" as="geometry" />
        </mxCell>
      </root>
    </mxGraphModel>
  </diagram>
</mxfile>
